<svg width="26" height="25" viewBox="0 0 26 25" fill="none" xmlns="http://www.w3.org/2000/svg">
<path d="M12.7533 0C14.7095 0 16.5607 0.426115 18.2148 1.18616C17.5377 1.69832 16.9099 2.18999 16.325 2.66322C15.2108 2.27603 14.0089 2.06502 12.7554 2.06502C9.86936 2.06502 7.25539 3.18357 5.36562 4.99252C3.47371 6.80146 2.30385 9.29874 2.30385 12.0582C2.30385 14.8178 3.47371 17.315 5.36562 19.124C7.25753 20.9329 9.86936 22.0515 12.7554 22.0515C15.6415 22.0515 18.2555 20.9329 20.1452 19.124C22.0372 17.315 23.207 14.8178 23.207 12.0582C23.207 11.4027 23.1406 10.7594 23.0142 10.1387C23.5563 9.46263 24.1112 8.78863 24.679 8.12078C25.1246 9.35405 25.3668 10.6795 25.3668 12.0582C25.3668 15.3873 23.9548 18.4029 21.6729 20.5847C19.3911 22.7664 16.2372 24.1165 12.7554 24.1165C9.27371 24.1165 6.11981 22.7664 3.83795 20.5847C1.55394 18.4029 0.141968 15.3873 0.141968 12.0582C0.141968 8.72922 1.55394 5.71363 3.8358 3.53184C6.11767 1.35005 9.27157 0 12.7533 0ZM6.87829 10.0772L9.95506 10.0383L10.1843 10.0957C10.8057 10.4378 11.3906 10.8291 11.937 11.2716C12.3312 11.5912 12.7083 11.9394 13.0661 12.3164C14.1695 10.6181 15.3458 9.05905 16.5885 7.62501C17.9491 6.05371 19.3932 4.62786 20.9102 3.32698L21.2101 3.21635H24.5676L23.8905 3.93542C21.81 6.14589 19.9224 8.43012 18.2169 10.786C16.5114 13.144 14.9859 15.5778 13.6296 18.0833L13.2075 18.8618L12.8197 18.0689C12.1041 16.6001 11.247 15.2521 10.225 14.0475C9.20301 12.8429 8.01387 11.7735 6.62761 10.8639L6.87829 10.0772Z" fill="#13118F"/>
</svg>
